<?xml version="1.0" standalone="no"?>
<!DOCTYPE svg PUBLIC "-//W3C//DTD SVG 20010904//EN"
 "http://www.w3.org/TR/2001/REC-SVG-20010904/DTD/svg10.dtd">
<svg version="1.0" xmlns="http://www.w3.org/2000/svg"
 width="335.000000pt" height="186.000000pt" viewBox="0 0 335.000000 186.000000"
 preserveAspectRatio="xMidYMid meet">

<g transform="translate(0.000000,186.000000) scale(0.100000,-0.100000)"
fill="#000000" stroke="none">
<path d="M2033 1246 c-81 -26 -152 -99 -174 -180 -8 -30 -28 -56 -79 -104 -85
-78 -157 -168 -221 -274 -54 -89 -59 -118 -29 -148 20 -20 33 -20 740 -20 719
0 720 0 720 -20 0 -32 -26 -75 -57 -95 -16 -11 -55 -21 -93 -24 l-65 -6 62
-23 c38 -14 72 -34 88 -53 24 -29 28 -30 55 -19 41 17 114 99 131 146 10 27
14 85 13 189 0 172 -20 265 -79 370 -121 216 -370 311 -687 261 -98 -16 -112
-16 -159 -2 -63 19 -109 19 -166 2z m148 -138 c37 -20 69 -68 69 -102 0 -14
-18 -16 -136 -16 l-136 0 6 32 c8 38 40 76 81 94 43 19 72 17 116 -8z m-228
-276 c25 -22 22 -77 -5 -96 -48 -34 -108 -7 -108 47 0 37 7 49 35 65 23 13 52
7 78 -16z"/>
<path d="M2300 361 c-5 -11 -10 -40 -10 -65 l0 -46 55 0 c48 0 55 2 55 20 0
18 7 20 76 20 71 0 75 -1 69 -20 -6 -19 -2 -20 67 -20 l73 0 -32 20 c-37 22
-53 48 -53 84 l0 26 -145 0 c-132 0 -145 -2 -155 -19z"/>
<path d="M2092 250 c-22 -38 -32 -68 -32 -97 l0 -43 59 0 c52 0 59 2 65 23 4
14 -2 32 -16 51 -11 16 -26 50 -33 75 l-11 46 -32 -55z"/>
</g>
</svg>
