<svg width="6" height="24" viewBox="0 0 6 24" fill="none" xmlns="http://www.w3.org/2000/svg">
<g id="Group">
<path id="Vector" d="M3.00001 4.99997C4.38071 4.99997 5.49998 3.88069 5.49998 2.49998C5.49998 1.11928 4.38071 0 3.00001 0C1.61931 0 0.500031 1.11928 0.500031 2.49998C0.500031 3.88069 1.61931 4.99997 3.00001 4.99997Z" fill="white"/>
<path id="Vector_2" d="M3.00001 14.5C4.38071 14.5 5.49998 13.3807 5.49998 12C5.49998 10.6193 4.38071 9.5 3.00001 9.5C1.61931 9.5 0.500031 10.6193 0.500031 12C0.500031 13.3807 1.61931 14.5 3.00001 14.5Z" fill="white"/>
<path id="Vector_3" d="M3.00001 24C4.38071 24 5.49998 22.8807 5.49998 21.5C5.49998 20.1193 4.38071 19 3.00001 19C1.61931 19 0.500031 20.1193 0.500031 21.5C0.500031 22.8807 1.61931 24 3.00001 24Z" fill="white"/>
</g>
</svg>
