<svg width="25" height="24" viewBox="0 0 25 24" fill="none" xmlns="http://www.w3.org/2000/svg">
<g id="estrela (1) 1" clip-path="url(#clip0_3_71)">
<path id="Vector" d="M7.352 23.438C6.5888 23.4346 5.84629 23.1895 5.231 22.738C4.60221 22.2956 4.13301 21.6621 3.8932 20.9317C3.65338 20.2013 3.65577 19.4129 3.9 18.684L5.07 15.065L1.99 12.813C1.37244 12.3618 0.913417 11.7268 0.678601 10.9989C0.443784 10.271 0.445208 9.48752 0.682669 8.76049C0.920129 8.03346 1.38146 7.40017 2.00065 6.95122C2.61984 6.50226 3.36517 6.26066 4.13 6.26097H7.9L9.045 2.69097C9.27999 1.95991 9.74094 1.32229 10.3615 0.86995C10.982 0.41761 11.7301 0.173889 12.498 0.173889C13.2659 0.173889 14.014 0.41761 14.6345 0.86995C15.2551 1.32229 15.716 1.95991 15.951 2.69097L17.1 6.26097H20.87C21.6347 6.26087 22.3799 6.50263 22.999 6.95166C23.618 7.40069 24.0791 8.03399 24.3165 8.76097C24.5538 9.48795 24.5552 10.2714 24.3203 10.9992C24.0855 11.7269 23.6265 12.3618 23.009 12.813L19.93 15.065L21.1 18.684C21.3359 19.414 21.3342 20.2 21.0951 20.929C20.856 21.6579 20.3918 22.2923 19.7694 22.7408C19.147 23.1893 18.3983 23.4288 17.6311 23.4249C16.864 23.4209 16.1178 23.1738 15.5 22.719L12.5 20.513L9.5 22.72C8.87926 23.1829 8.12638 23.4346 7.352 23.438ZM4.13 9.26097C3.998 9.26096 3.86938 9.30266 3.76251 9.38014C3.65565 9.45761 3.576 9.56688 3.53496 9.69233C3.49392 9.81778 3.49358 9.953 3.534 10.0787C3.57442 10.2043 3.65352 10.314 3.76 10.392L7.716 13.283C7.97073 13.4692 8.16024 13.7311 8.25755 14.0313C8.35486 14.3315 8.35501 14.6547 8.258 14.955L6.758 19.605C6.71637 19.7311 6.71595 19.8672 6.75678 19.9936C6.79762 20.12 6.87759 20.2301 6.98514 20.308C7.0927 20.386 7.22225 20.4277 7.35507 20.4271C7.4879 20.4266 7.6171 20.3838 7.724 20.305L11.613 17.444C11.8706 17.2544 12.1821 17.1521 12.502 17.1521C12.8219 17.1521 13.1334 17.2544 13.391 17.444L17.28 20.304C17.3868 20.3835 17.5161 20.4269 17.6493 20.4278C17.7824 20.4287 17.9124 20.3871 18.0202 20.3089C18.128 20.2308 18.2081 20.1203 18.2487 19.9935C18.2893 19.8667 18.2884 19.7302 18.246 19.604L16.746 14.954C16.649 14.6537 16.6491 14.3305 16.7465 14.0303C16.8438 13.7301 17.0333 13.4682 17.288 13.282L21.243 10.391C21.3494 10.313 21.4285 10.2034 21.4689 10.0779C21.5094 9.95233 21.5091 9.81721 21.4682 9.6918C21.4273 9.5664 21.3478 9.45713 21.2411 9.37958C21.1344 9.30203 21.0059 9.26017 20.874 9.25997H16C15.6823 9.25989 15.3728 9.15895 15.1162 8.97168C14.8596 8.78441 14.669 8.5205 14.572 8.21797L13.1 3.60697C13.0595 3.48077 12.9799 3.3707 12.8728 3.2926C12.7657 3.21451 12.6366 3.17244 12.504 3.17244C12.3714 3.17244 12.2423 3.21451 12.1352 3.2926C12.0281 3.3707 11.9485 3.48077 11.908 3.60697L10.425 8.21897C10.3282 8.52101 10.1381 8.78457 9.88202 8.9718C9.62598 9.15902 9.31718 9.26026 9 9.26097H4.13Z" fill="#FF003F"/>
</g>
<defs>
<clipPath id="clip0_3_71">
<rect width="24" height="24" fill="white" transform="translate(0.5)"/>
</clipPath>
</defs>
</svg>
