<svg width="24" height="24" viewBox="0 0 24 24" fill="none" xmlns="http://www.w3.org/2000/svg">
<g id="estrela 1" clip-path="url(#clip0_3_64)">
<path id="Vector" d="M1.32701 12.4L4.88701 15L3.53501 19.187C3.31652 19.8364 3.31375 20.539 3.52712 21.1901C3.74048 21.8412 4.15856 22.4059 4.71901 22.8C5.26986 23.2068 5.9374 23.4247 6.62216 23.4213C7.30693 23.4179 7.97225 23.1933 8.51901 22.781L12 20.219L15.482 22.778C16.0319 23.1825 16.6958 23.4021 17.3784 23.4055C18.061 23.4088 18.727 23.1956 19.2808 22.7965C19.8345 22.3975 20.2475 21.8331 20.4603 21.1845C20.6731 20.5359 20.6747 19.8366 20.465 19.187L19.113 15L22.673 12.4C23.2222 11.9985 23.6304 11.4338 23.8394 10.7864C24.0483 10.139 24.0474 9.4422 23.8367 8.7954C23.626 8.14861 23.2162 7.58494 22.666 7.18492C22.1158 6.7849 21.4533 6.56898 20.773 6.56802H16.4L15.073 2.43202C14.8643 1.78097 14.4543 1.21303 13.902 0.810081C13.3497 0.407132 12.6837 0.190002 12 0.190002C11.3163 0.190002 10.6503 0.407132 10.098 0.810081C9.54574 1.21303 9.13569 1.78097 8.92701 2.43202L7.60001 6.56802H3.23101C2.55075 6.56898 1.8882 6.7849 1.33799 7.18492C0.787778 7.58494 0.378051 8.14861 0.167331 8.7954C-0.0433882 9.4422 -0.0443208 10.139 0.164666 10.7864C0.373654 11.4338 0.781871 11.9985 1.33101 12.4H1.32701Z" fill="#FF003F"/>
</g>
<defs>
<clipPath id="clip0_3_64">
<rect width="24" height="24" fill="white"/>
</clipPath>
</defs>
</svg>
