<svg width="25" height="24" viewBox="0 0 25 24" fill="none" xmlns="http://www.w3.org/2000/svg">
<g id="fi-bs-search" clip-path="url(#clip0_2_348)">
<path id="Vector" d="M19.1923 16.7767C20.7888 14.6431 21.5178 11.9839 21.2326 9.33443C20.9474 6.68495 19.669 4.24188 17.655 2.49701C15.6409 0.75214 13.0406 -0.16498 10.3775 -0.0697374C7.71439 0.0255053 5.18625 1.12604 3.30196 3.01033C1.41767 4.89462 0.317131 7.42277 0.221889 10.0859C0.126646 12.7489 1.04377 15.3492 2.78864 17.3633C4.53351 19.3774 6.97657 20.6557 9.62605 20.941C12.2755 21.2262 14.9347 20.4972 17.0683 18.9007L22.1683 24.0007L24.2923 21.8807L19.1923 16.7767ZM10.7923 18.0007C9.30893 18.0007 7.85888 17.5608 6.62552 16.7367C5.39215 15.9126 4.43085 14.7412 3.8632 13.3708C3.29554 12.0003 3.14701 10.4923 3.4364 9.03749C3.72579 7.58263 4.4401 6.24626 5.48899 5.19737C6.53789 4.14847 7.87426 3.43417 9.32912 3.14478C10.784 2.85539 12.292 3.00391 13.6624 3.57157C15.0329 4.13923 16.2042 5.10052 17.0283 6.33389C17.8524 7.56726 18.2923 9.01731 18.2923 10.5007C18.2904 12.4892 17.4997 14.3958 16.0935 15.8019C14.6874 17.208 12.7808 17.9988 10.7923 18.0007Z" fill="#787B81"/>
</g>
<defs>
<clipPath id="clip0_2_348">
<rect width="24" height="24" fill="white" transform="translate(0.292053)"/>
</clipPath>
</defs>
</svg>
