<svg width="25" height="18" viewBox="0 0 25 18" fill="none" xmlns="http://www.w3.org/2000/svg">
<g id="Group">
<path id="Vector" d="M23.0841 7.5H2.08411C1.25568 7.5 0.584106 8.17158 0.584106 9C0.584106 9.82842 1.25568 10.5 2.08411 10.5H23.0841C23.9125 10.5 24.5841 9.82842 24.5841 9C24.5841 8.17158 23.9125 7.5 23.0841 7.5Z" fill="white"/>
<path id="Vector_2" d="M2.08411 3.50001H23.0841C23.9125 3.50001 24.5841 2.82843 24.5841 2C24.5841 1.17158 23.9125 0.5 23.0841 0.5H2.08411C1.25568 0.5 0.584106 1.17158 0.584106 2C0.584106 2.82843 1.25568 3.50001 2.08411 3.50001Z" fill="white"/>
<path id="Vector_3" d="M23.0841 14.5H2.08411C1.25568 14.5 0.584106 15.1716 0.584106 16C0.584106 16.8284 1.25568 17.5 2.08411 17.5H23.0841C23.9125 17.5 24.5841 16.8284 24.5841 16C24.5841 15.1716 23.9125 14.5 23.0841 14.5Z" fill="white"/>
</g>
</svg>
