<svg width="24" height="24" viewBox="0 0 24 24" fill="none" xmlns="http://www.w3.org/2000/svg">
<g id="hand 1">
<path id="Vector" d="M22.8148 6.70478C22.2706 4.17513 20.0387 2.36552 17.4512 2.35596H5.48217C2.45564 2.3598 0.00328125 4.81263 0 7.83911V12.8229C0.00328125 15.8493 2.45583 18.3018 5.48217 18.3051H7.55644L9.06455 21.2585C9.75877 22.6114 11.1603 23.4536 12.6808 23.4314C14.8558 23.4343 16.6213 21.6734 16.6241 19.4984C16.6244 19.2749 16.6057 19.0518 16.5681 18.8314L16.4784 18.3051H18.5098C21.5375 18.3051 23.9919 15.8507 23.9919 12.823C23.9919 12.4418 23.9522 12.0616 23.8733 11.6887L22.8148 6.70478ZM2.99025 12.8229V7.83911C2.99025 6.46286 4.10592 5.34724 5.48213 5.34724H6.97725V15.3148H5.48213C4.10592 15.3148 2.99025 14.1992 2.99025 12.8229ZM20.4405 14.3928C19.9681 14.9774 19.2563 15.3164 18.5047 15.3148H12.9309L13.6156 19.3337C13.6647 19.6091 13.5875 19.8919 13.4053 20.1042C13.2115 20.3291 12.9255 20.4532 12.6288 20.4411C12.2514 20.4451 11.9042 20.2355 11.7317 19.8999L9.9675 16.4541V5.34724H17.4511C18.6273 5.35071 19.642 6.17364 19.8882 7.32382L20.9428 12.3076C21.0999 13.0428 20.9151 13.8097 20.4405 14.3928Z" fill="white"/>
</g>
</svg>
