<svg width="24" height="24" viewBox="0 0 24 24" fill="none" xmlns="http://www.w3.org/2000/svg">
<g id="social-network 1">
<path id="Vector" d="M22.7521 8.00995C21.714 6.72346 20.1484 5.97712 18.4952 5.98059H16.4648L16.5545 5.45456C16.92 3.31162 15.4792 1.27814 13.3363 0.912604C13.1005 0.872385 12.8615 0.853729 12.6224 0.856916C11.1197 0.849088 9.74123 1.68946 9.05981 3.02873L7.55348 5.98059H5.47931C2.45456 5.98392 0.00328125 8.43515 0 11.4599V16.4412C0.00328125 19.466 2.45456 21.9172 5.47931 21.9205H17.4422C20.0277 21.9111 22.2583 20.1034 22.803 17.5759L23.856 12.5947C24.2015 10.9781 23.7956 9.29207 22.7521 8.00995ZM2.9887 16.4411V11.4599C2.9887 10.0844 4.10377 8.96934 5.47931 8.96934H6.97369V18.9317H5.47931C4.10381 18.9317 2.9887 17.8167 2.9887 16.4411ZM20.932 11.976L19.878 16.9572C19.6308 18.1059 18.6172 18.9276 17.4421 18.9318H9.96239V7.83459L11.7218 4.3866C11.9082 4.03757 12.2789 3.82706 12.6742 3.84567C13.1979 3.84599 13.6223 4.27092 13.622 4.7947C13.6219 4.84757 13.6175 4.90035 13.6087 4.95248L12.9242 8.96934H18.4952C19.8707 8.9692 20.9859 10.0842 20.986 11.4597C20.9861 11.6332 20.9679 11.8062 20.932 11.976Z" fill="white"/>
</g>
</svg>
